<svg width="579" height="149" viewBox="0 0 579 149" fill="none" xmlns="http://www.w3.org/2000/svg">
<path d="M51.5396 3.36889H0V7.88992H13.5631L65.5548 146.233L111.669 6.08151H123.424V3.36889H94.0373V6.08151H107.148V7.88992L74.5969 105.544L38.4287 6.08151H51.5396V3.36889Z" fill="white"/>
<path d="M341.337 50.3875V0.204182C334.465 7.43781 329.733 8.04062 328.226 7.43781C297.483 -5.22104 291.003 2.01259 284.824 2.46469C251.188 14.0385 241.875 57.0183 241.423 77.0615C242.869 121.91 270.96 141.863 284.824 146.233C300.015 153.105 321.897 142.164 335.008 137.643C342.603 136.92 348.721 143.068 350.831 146.233V87.4599H363.038V84.7473H312.855V87.4599H326.87L325.514 130.862C321.897 142.074 304.114 144.575 295.675 144.425C256.794 144.425 255.89 2.46469 295.675 2.46469C322.439 -1.87549 336.665 32.6048 340.433 50.3875H341.337Z" fill="white"/>
<path d="M407.796 3.821H355.352V5.62941H369.82V7.43781V73.8968C369.82 125.889 366.655 140.808 412.769 148.946C454.815 150.302 460.24 125.889 460.24 110.969V6.53361H485.106V142.616H473.351V145.329H578.239V89.2683H575.978V90.6246C573.085 139.09 543.879 146.233 509.971 142.616V73.8968C536.374 70.28 542.07 91.0767 541.618 101.927H543.879V42.7018H541.166V44.5102C542.975 67.2962 521.123 72.0884 509.971 71.6363L509.067 6.53361H533.481C562.777 6.53361 572.211 39.3864 573.266 55.8128H574.622V3.821H441.252V6.53361H457.527L455.719 122.272C444.869 144.696 436.279 143.743 427.689 145.329C404.179 149.669 395.589 133.273 394.233 124.532V5.62941H407.796V3.821Z" fill="white"/>
</svg>
