<svg width="124" height="150" viewBox="0 0 124 150" fill="none" xmlns="http://www.w3.org/2000/svg">
<path fill-rule="evenodd" clip-rule="evenodd" d="M61.0461 1C47.1816 2.05491 17.1922 11.3079 8.15011 39.8808C0.615078 56.91 -7.76388 98.5637 19.0006 128.945C30.6045 141.754 61.046 161.677 89.9806 138.891C107.01 128.644 136.095 94.4947 116.202 39.8808C111.832 27.674 94.6825 2.80841 61.0461 1ZM62.4398 147.53C82.1653 147.53 100.868 125.377 97.7038 74.2899C97.7038 28.1755 88.2097 1.50144 61.9878 2.85775C35.7659 4.21406 26.2717 34.839 26.2717 74.2899C23.5591 136.68 42.7144 147.53 62.4398 147.53Z" fill="white"/>
<path d="M8.15011 39.8808L8.60735 40.0831L8.6185 40.0579L8.62681 40.0316L8.15011 39.8808ZM61.0461 1L61.0729 0.500721L61.0405 0.498978L61.0081 0.501441L61.0461 1ZM19.0006 128.945L18.6254 129.275L18.63 129.281L19.0006 128.945ZM89.9806 138.891L89.7228 138.463L89.6959 138.479L89.6712 138.498L89.9806 138.891ZM116.202 39.8808L115.732 40.0493L115.733 40.0519L116.202 39.8808ZM97.7038 74.2899H97.2038V74.3054L97.2048 74.3208L97.7038 74.2899ZM61.9878 2.85775L62.0136 3.35708L61.9878 2.85775ZM26.2717 74.2899L26.7712 74.3116L26.7717 74.3008V74.2899H26.2717ZM8.62681 40.0316C13.1013 25.8924 22.7587 16.5246 33.0408 10.5535C43.3299 4.57839 54.2191 2.02089 61.084 1.49856L61.0081 0.501441C54.0086 1.03402 42.9709 3.63048 32.5386 9.68878C22.0993 15.7511 12.241 25.2963 7.67341 39.7299L8.62681 40.0316ZM19.3757 128.614C6.09118 113.535 1.52027 95.6507 1.21294 79.3964C0.905496 63.1354 4.86685 48.5366 8.60735 40.0831L7.69288 39.6785C3.89834 48.2541 -0.0973021 62.9968 0.213123 79.4153C0.523674 95.8404 5.1455 113.974 18.6254 129.275L19.3757 128.614ZM89.6712 138.498C75.3493 149.777 60.6787 150.482 48.1328 146.787C35.5625 143.085 25.1262 134.962 19.3711 128.609L18.63 129.281C24.4788 135.737 35.0653 143.981 47.8503 147.746C60.6599 151.518 75.6773 150.791 90.2899 139.284L89.6712 138.498ZM115.733 40.0519C135.528 94.3988 106.588 128.314 89.7228 138.463L90.2384 139.32C107.431 128.973 136.662 94.5906 116.672 39.7097L115.733 40.0519ZM61.0192 1.49928C94.393 3.29357 111.406 27.9664 115.732 40.0493L116.673 39.7123C112.259 27.3816 94.972 2.32325 61.0729 0.500721L61.0192 1.49928ZM97.2048 74.3208C98.7837 99.8086 94.902 118.011 88.2204 129.822C81.5464 141.619 72.0905 147.03 62.4398 147.03V148.03C72.5145 148.03 82.273 142.365 89.0908 130.314C95.9011 118.276 99.7887 99.8588 98.2029 74.259L97.2048 74.3208ZM62.0136 3.35708C68.4785 3.02269 73.8792 4.41588 78.3548 7.3789C82.835 10.345 86.4269 14.9098 89.2249 20.9816C94.8288 33.142 97.2038 51.2479 97.2038 74.2899H98.2038C98.2038 51.2175 95.8318 32.9292 90.1331 20.563C87.2799 14.3715 83.5816 9.63999 78.9068 6.54508C74.2274 3.44711 68.608 2.01466 61.9619 2.35842L62.0136 3.35708ZM26.7717 74.2899C26.7717 54.5913 29.144 37.1541 34.7537 24.4909C40.3535 11.8499 49.1453 4.02269 62.0136 3.35708L61.9619 2.35842C48.6084 3.04912 39.5421 11.2126 33.8394 24.0858C28.1465 36.9369 25.7717 54.5376 25.7717 74.2899H26.7717ZM62.4398 147.03C52.6804 147.03 43.1514 144.356 36.3592 134.032C29.5327 123.655 25.4162 105.478 26.7712 74.3116L25.7722 74.2682C24.4146 105.492 28.5194 123.935 35.5238 134.581C42.5625 145.28 52.4738 148.03 62.4398 148.03V147.03Z" fill="white"/>
</svg>
